<svg width="30" height="36" viewBox="0 0 30 36" fill="none" xmlns="http://www.w3.org/2000/svg">
<path d="M12.419 20.25C12.0063 19.5783 11.5936 18.8037 11.1829 18.0815C10.7199 17.2545 10.2549 16.4295 9.84219 15.7053V15.6529C9.78984 15.6529 9.73952 15.6004 9.63685 15.6004C9.48184 15.6004 9.2765 15.6529 9.12149 15.6529C7.21503 15.6529 5.5663 14.5676 4.22554 12.5545C3.81285 11.8324 3.40015 11.0578 2.98949 10.3337C2.5768 9.61154 2.21645 8.88739 1.80377 8.16521C1.54609 7.70128 1.23605 7.23532 0.978373 6.77135C0.668348 6.2025 0.308015 5.63567 0 5.11928L0.978373 4.5C1.33872 5.06885 1.64873 5.63567 2.0091 6.20448C2.26678 6.66841 2.57681 7.13437 2.83449 7.59835C3.24719 8.32048 3.65989 9.09506 4.07055 9.81921C4.4309 10.5413 4.84359 11.2655 5.25627 11.9877C6.44199 13.8475 7.93577 14.7249 9.58446 14.5172H9.6368C10.0495 14.5172 10.6152 14.7229 10.8729 15.1889C11.3359 15.911 11.8009 16.738 12.2639 17.5651C12.6766 18.2872 13.0893 19.0618 13.5 19.6831L12.419 20.25Z" fill="black"/>
<path d="M23.6354 35.9999H23.4293C21.7747 35.8452 20.7404 34.3549 19.9646 33.2241C19.9121 33.1217 19.8091 33.0193 19.7586 32.9148C18.7242 31.4245 17.4838 29.4181 16.5 27.6707L17.5343 27.1043C18.4656 28.8014 19.7061 30.806 20.6899 32.246C20.7424 32.3485 20.8455 32.4509 20.896 32.5553C21.5687 33.5837 22.3444 34.7145 23.4818 34.8169C23.8435 34.8691 23.999 34.7145 24.1021 34.612C24.4132 34.2003 24.3606 33.2241 24.1021 32.6578C23.2233 30.6533 21.6192 28.3396 20.2233 26.2829C19.6536 25.4092 19.0859 24.6379 18.5687 23.8666L19.5505 23.25C20.0151 23.969 20.5849 24.7925 21.1546 25.616C22.603 27.725 24.2576 30.0889 25.1889 32.1979C25.603 33.1238 25.6535 34.4594 25.0333 35.3352C24.7727 35.7429 24.2556 36 23.6353 36L23.6354 35.9999Z" fill="black"/>
<path d="M14.6572 17.25C14.2759 16.732 13.622 15.8518 13.1299 15.2812L12.9659 15.0222C12.9105 14.9696 12.8572 14.919 12.8572 14.8664C12.5292 14.5042 12.0392 13.883 12.3119 13.1566C12.4205 12.7944 12.64 12.4828 12.8018 12.2238C12.9659 12.0174 13.0745 11.8089 13.1299 11.6025C13.2385 11.1877 13.2385 10.7223 13.0745 10.2043C12.8018 9.22091 12.2011 8.28807 11.4939 7.30265C10.6759 6.21401 9.91332 5.07483 9.09532 3.98822C8.33273 2.89959 7.51473 1.7604 6.75 0.673798L7.78526 0C8.60326 1.08864 9.36585 2.22782 10.1306 3.31443C10.8932 4.40306 11.7112 5.54225 12.5292 6.62885C13.2918 7.71749 14.0011 8.70088 14.3292 9.89268C14.5464 10.6171 14.5464 11.3435 14.3846 11.9121C14.2759 12.2743 14.0565 12.5859 13.8946 12.8449C13.7306 13.0513 13.622 13.2597 13.5666 13.4661C13.5112 13.6219 13.6752 13.8283 13.8946 14.1399L14.0586 14.2957L14.2227 14.5547C14.7126 15.1254 15.3687 16.0561 15.75 16.5741L14.6572 17.25Z" fill="black"/>
<path d="M2.25 3.63619L3.30721 3L8.25 10.6138L7.19279 11.25L2.25 3.63619Z" fill="black"/>
<path d="M4.5 2.13619L5.55721 1.5L10.5 9.11381L9.44279 9.75L4.5 2.13619Z" fill="black"/>
<path d="M7.91735 35.9999C7.55227 35.9999 7.2382 35.8976 6.92615 35.7431C5.98595 35.1273 5.88192 33.5867 6.08994 32.7642C6.24698 32.1985 6.87311 31.0692 7.55226 29.9919C7.65627 29.8375 7.7093 29.7352 7.7093 29.683V29.6308C9.69374 26.7542 10.5279 25.6248 11.5721 24.2387C12.0943 23.5707 12.6164 22.8525 13.3996 21.8254C14.1297 20.8505 14.6518 20.0802 15.28 19.1554C15.5411 18.7963 15.8021 18.3851 16.1162 17.9237L18.2577 14.6881C20.9723 10.5798 27.5518 0.513539 27.5518 0.513539L27.8659 0L28.388 0.308928C29.7974 1.23368 30.2155 4.8285 29.9014 6.36911C29.3262 9.03913 28.127 11.2477 27.2377 12.5838L22.1736 20.3391C21.9656 20.648 21.6515 20.8526 21.2334 20.9549C20.8684 21.0071 20.5033 20.9549 20.1362 20.7503L19.457 20.3391C17.6826 23.2157 16.8995 24.652 16.2203 25.8335C15.2801 27.4263 14.6009 28.6058 12.2004 32.4072L12.1473 32.4594C12.0943 32.5116 12.0433 32.6139 11.9393 32.7162C11.2092 33.7433 10.426 34.7703 9.95487 35.1815C9.53474 35.5888 8.70058 36 7.9174 36L7.91735 35.9999ZM8.75152 30.2487C8.69849 30.3008 8.6475 30.4032 8.59447 30.5576C8.28038 31.1233 7.39321 32.5095 7.28918 33.023C7.13214 33.6389 7.28918 34.5636 7.60327 34.7181C7.91736 34.9227 8.80453 34.6659 9.32665 34.3068C9.74475 33.9477 10.736 32.6118 11.101 32.0982C11.205 31.9959 11.2581 31.8936 11.309 31.8414C13.7116 28.0421 14.3887 26.9106 15.278 25.3199C16.0081 24.0883 16.8974 22.5476 18.8797 19.2598L19.1938 18.7462L20.9172 19.8255C20.9702 19.8776 21.0743 19.8776 21.1252 19.8776C21.1783 19.8776 21.2293 19.8255 21.2293 19.7753L26.2934 12.02C27.1296 10.7362 28.2778 8.68202 28.7999 6.16654C29.061 4.98501 28.7469 2.82854 28.2248 1.80146C26.7114 4.06022 21.6452 11.8155 19.3488 15.308L17.2073 18.5436C16.8932 19.005 16.6321 19.4163 16.371 19.7753C15.6919 20.7001 15.1698 21.4704 14.4396 22.4974C13.6564 23.5245 13.0813 24.2948 12.6122 24.9628C11.519 26.2948 10.6828 27.372 8.75139 30.2488L8.75152 30.2487Z" fill="black"/>
</svg>
