<svg width="40" height="39" viewBox="0 0 40 39" fill="none" xmlns="http://www.w3.org/2000/svg">
<path d="M27.5777 13.1527C30.4514 13.1527 32.7942 10.7641 32.7942 7.8263C32.7942 4.89025 30.4563 2.4967 27.5777 2.4967C24.7039 2.4967 22.3643 4.8853 22.3643 7.8263C22.3643 10.764 24.7022 13.1527 27.5777 13.1527ZM27.5777 3.30704C30.0178 3.30704 32.001 5.33348 32.001 7.8263C32.001 10.3143 30.0176 12.3409 27.5777 12.3409C25.1425 12.3409 23.1589 10.3144 23.1589 7.8263C23.1539 5.33327 25.1373 3.30704 27.5777 3.30704ZM36.5883 16.2438C35.0566 14.743 32.8061 13.9546 30.0792 13.9546C26.8971 13.9546 24.3481 14.6655 22.4948 16.067C21.7314 15.282 20.6795 14.7985 19.5155 14.7985C18.9747 14.7985 18.4603 14.9013 17.9838 15.0916C16.1653 12.7806 13.0494 11.5593 8.94716 11.5593C6.22015 11.5593 3.96629 12.3527 2.43802 13.8485C0.944252 15.3174 0.13309 17.4517 0.100098 20.0254V20.0473C0.172642 21.8801 0.492489 23.6184 1.04977 25.2088C1.72904 27.1544 2.73808 28.8135 4.05046 30.1765V37.6892C4.05046 37.9132 4.22852 38.0951 4.44781 38.0951C4.6671 38.0951 4.84516 37.9132 4.84516 37.6892L4.84351 30.9326C6.8187 32.6491 9.36783 33.7878 12.4279 34.2914V37.689C12.4279 37.9131 12.606 38.095 12.8252 38.095C13.0445 38.095 13.2226 37.9131 13.2226 37.689V34.3807C13.9233 34.3892 14.6026 34.1702 15.173 33.7288C15.8523 33.2067 16.2909 32.4486 16.4096 31.5896C16.6586 29.8175 15.4467 28.1735 13.7122 27.9191C13.6364 27.9056 13.5556 27.8972 13.4798 27.8854C14.1047 26.1134 15.7583 24.9056 17.633 24.9056H21.4071C23.8423 24.9056 25.8224 26.9286 25.8224 29.4165V30.2352C25.6624 30.2655 25.4976 30.2908 25.3327 30.3177C23.5982 30.5721 22.3913 32.2195 22.6353 33.9882C22.754 34.8456 23.1959 35.6053 23.8768 36.1275C24.4473 36.5638 25.1266 36.7912 25.8273 36.7794V37.689C25.8273 37.913 26.0054 38.0949 26.2246 38.0949C26.4439 38.0949 26.622 37.913 26.622 37.689V36.685C30.3071 36.0719 33.2532 34.5457 35.347 32.1959L36.3132 37.7631C36.3462 37.9618 36.516 38.1 36.7023 38.1C36.7237 38.1 36.7485 38.1 36.7748 38.0949C36.9908 38.0562 37.1343 37.8456 37.0963 37.625L36.0115 31.3891C36.8424 30.2857 37.5052 29.0224 37.9998 27.6108C38.5571 26.0106 38.877 24.2739 38.9445 22.4494V22.4275C38.8984 19.8485 38.0872 17.7106 36.5885 16.2437L36.5883 16.2438ZM19.5156 15.6105C21.3985 15.6105 22.9252 17.1754 22.9252 19.094C22.9252 21.0126 21.3936 22.5775 19.5156 22.5775C17.6377 22.5775 16.106 21.016 16.106 19.094C16.106 17.172 17.6377 15.6105 19.5156 15.6105ZM37.238 27.3359C35.5579 32.1484 31.708 35.1235 26.1074 35.9471C25.4793 36.0381 24.8494 35.873 24.3433 35.4856C23.8322 35.0931 23.5041 34.5237 23.415 33.8819C23.2287 32.5545 24.1372 31.3165 25.4413 31.1261C29.2105 30.5736 31.6835 28.6718 32.7897 25.4763C33.1013 24.5802 33.309 23.5105 33.3717 22.4577C33.3849 22.2337 33.22 22.0434 33.0007 22.0265H32.976C32.7699 22.0265 32.5968 22.1899 32.5786 22.4055C32.5193 23.3842 32.3247 24.3764 32.0378 25.2034C31.169 27.7167 29.3455 29.3472 26.6103 30.0634V29.4216C26.6103 26.4889 24.2757 24.1053 21.4068 24.1053H17.6327C15.3789 24.1053 13.3989 25.5809 12.6947 27.7405C9.81273 27.0633 7.90029 25.4126 6.9967 22.8152C6.70982 21.9831 6.51525 20.9909 6.45591 20.0122C6.44272 19.7882 6.25312 19.6197 6.03383 19.6332C5.81455 19.6467 5.64967 19.8404 5.66286 20.0644C5.72551 21.1122 5.93655 22.1869 6.24487 23.083C7.35448 26.2785 9.82761 28.1801 13.5932 28.7328C14.8925 28.9232 15.8009 30.1596 15.6146 31.4886C15.5256 32.1304 15.1975 32.7048 14.6863 33.0923C14.1752 33.4847 13.5504 33.6481 12.9172 33.5538C7.31628 32.7352 3.46658 29.7554 1.78671 24.9426C1.25912 23.4333 0.95575 21.7774 0.883187 20.0305C0.960677 15.1624 3.89872 12.3712 8.95049 12.3712C12.7196 12.3712 15.5817 13.4409 17.2616 15.4724C16.0926 16.2354 15.3111 17.5763 15.3111 19.094C15.3111 21.4606 17.1973 23.3893 19.5153 23.3893C21.8318 23.3893 23.7196 21.4623 23.7196 19.094C23.7196 18.2062 23.4541 17.3775 23.0024 16.6919C24.7121 15.4117 27.093 14.7648 30.0806 14.7648C35.1325 14.7648 38.0705 17.5543 38.1381 22.4241C38.0738 24.1608 37.7704 25.8133 37.2378 27.3362L37.238 27.3359ZM11.4532 10.7592C14.327 10.7592 16.6666 8.37058 16.6666 5.42958C16.6666 2.49353 14.3287 0.0999756 11.4532 0.0999756C8.57949 0.0999756 6.23672 2.48857 6.23672 5.42958C6.24166 8.36562 8.57956 10.7592 11.4532 10.7592ZM11.4532 0.909963C13.8884 0.909963 15.872 2.9364 15.872 5.42922C15.872 7.9221 13.8886 9.94847 11.4532 9.94847C9.01311 9.94847 7.02987 7.92203 7.02987 5.42922C7.03482 2.93619 9.01824 0.909963 11.4532 0.909963Z" fill="black" stroke="black" stroke-width="0.2"/>
</svg>
