<svg width="31" height="31" viewBox="0 0 31 31" fill="none" xmlns="http://www.w3.org/2000/svg">
<path d="M26.2721 2.51997H26.2638L26.1397 2.52325C26.1298 2.52325 26.1182 2.52325 26.1083 2.5249L25.9842 2.53476C25.9743 2.53641 25.9643 2.53805 25.9544 2.5397L25.832 2.55943C25.597 2.59724 25.4381 2.81592 25.4762 3.04776C25.511 3.25822 25.693 3.40786 25.8998 3.40786C25.923 3.40786 25.9461 3.40457 25.9693 3.40128L26.0769 3.38484L26.1712 3.37662L26.2638 3.37497L26.3581 3.37991L26.4525 3.39141L26.5435 3.40786V3.4095L26.6345 3.43252L26.7238 3.46376L26.8099 3.50158L26.8943 3.54433L26.9737 3.59201L27.0515 3.64627V3.64791L27.1226 3.70711L27.1921 3.77123L27.2566 3.84193L27.3145 3.91592L27.3691 3.99484L27.4155 4.07705L27.4568 4.16091L27.4932 4.24969L27.5214 4.33848L27.5445 4.43055L27.5594 4.52428L27.5677 4.618L27.571 4.71336L27.5644 4.82352C27.5528 5.05865 27.7348 5.25924 27.9731 5.27075H27.9946C28.2213 5.27075 28.4116 5.09317 28.4232 4.86628L28.4298 4.74132V4.71008L28.4265 4.58512C28.4265 4.57526 28.4265 4.56539 28.4248 4.55388L28.4133 4.43057C28.4116 4.41906 28.4116 4.40919 28.4099 4.39933L28.3884 4.27601C28.3868 4.26615 28.3851 4.25628 28.3818 4.24642L28.3537 4.12474C28.3504 4.11488 28.3471 4.10501 28.3454 4.09515L28.3074 3.97512C28.304 3.9669 28.3007 3.95703 28.2958 3.94717L28.2494 3.83043C28.2461 3.82056 28.2412 3.81234 28.2379 3.80248L28.1816 3.69067C28.1783 3.68081 28.1733 3.67259 28.1684 3.66272L28.1055 3.5542C28.1005 3.54598 28.0939 3.53776 28.0889 3.52954L28.0178 3.42595C28.0128 3.41609 28.0062 3.40787 27.9996 3.40129L27.9218 3.30264C27.9152 3.29442 27.9086 3.2862 27.902 3.27962L27.8176 3.1859L27.7961 3.16452L27.7051 3.07738C27.6968 3.0708 27.6902 3.06422 27.6819 3.05765L27.5859 2.97873C27.5776 2.97215 27.5694 2.96722 27.5611 2.96064L27.4602 2.88829C27.4519 2.88336 27.4436 2.87679 27.4353 2.87185L27.3278 2.80773C27.3195 2.8028 27.3112 2.79786 27.3013 2.79293L27.1921 2.73538C27.1822 2.7321 27.1739 2.72716 27.164 2.72223L27.0498 2.67455C27.0399 2.66962 27.0316 2.66633 27.0217 2.66304L26.9042 2.62193C26.8943 2.61864 26.8843 2.61536 26.8744 2.61371L26.7536 2.58083C26.7453 2.57754 26.7354 2.57589 26.7255 2.57425L26.603 2.54959C26.5931 2.54794 26.5832 2.5463 26.5733 2.54465L26.4492 2.52986C26.4392 2.52821 26.4293 2.52821 26.4194 2.52821L26.2936 2.52164C26.287 2.51999 26.2787 2.51997 26.2721 2.51997ZM4.16529 5.92512L18.0381 7.28981L16.1071 9.25627C15.5627 9.80543 15.0166 10.3562 13.8021 11.7177C13.6168 11.9265 13.4133 12.155 13.1982 12.3984V12.4L2.24431 7.43457L4.16529 5.92512ZM2.0771 18.9652L6.93187 19.8086H6.93021C6.21539 20.713 5.5651 21.5795 5.04058 22.3753L1.13043 19.8037L2.0771 18.9652ZM28.7886 0.853762C29.2337 0.853762 29.5481 0.952415 29.7434 1.14479C29.7566 1.15794 29.7698 1.1711 29.7831 1.18589C30.119 1.5657 30.253 2.44205 30.0329 3.49274C29.8211 4.50227 29.2999 5.56281 28.5586 6.56411C27.8438 7.53418 26.9321 8.43687 25.5223 9.83281V9.83446L25.37 9.98244L25.0292 10.3195L24.6552 10.6911C23.2703 12.064 21.5577 13.7526 19.7012 15.4955C17.5121 17.5525 15.1215 19.6851 13.0592 21.4919C10.9876 23.3087 9.28994 24.7556 7.75581 25.6039C6.64055 26.2205 5.73709 26.4572 5.16626 26.4572C4.90813 26.4572 4.71785 26.4079 4.60697 26.324C4.59539 26.3158 4.58381 26.306 4.57388 26.2961C4.3356 26.0626 4.3356 25.2356 5.28044 23.6094C6.20042 22.031 7.82865 20.0134 9.59901 17.9021C11.3629 15.7992 13.2391 13.6354 14.4453 12.2822C15.6483 10.9339 16.1827 10.3946 16.7205 9.85369L16.7221 9.85205L21.1134 5.3798C22.3279 4.20091 23.5061 3.06145 24.6494 2.29524V2.29688C25.7845 1.53727 26.8915 1.1443 27.8479 0.958504C28.2103 0.887804 28.5213 0.853274 28.7877 0.853274L28.7886 0.853762ZM23.8495 12.6921L25.3387 26.9128L23.8528 28.4403L18.5776 17.7069H18.5759C19.1551 17.1758 19.7293 16.6431 20.2918 16.1153C21.5643 14.9199 22.7689 13.7509 23.8476 12.692L23.8495 12.6921ZM11.5221 23.9432L12.2071 28.8823V28.884L11.1961 29.8853L8.83159 25.9589H8.82994C9.67879 25.4196 10.5706 24.7339 11.5204 23.943L11.5221 23.9432ZM28.7872 0C28.4248 0 28.0492 0.0493248 27.6835 0.120028C26.6245 0.327197 25.4083 0.759613 24.1706 1.5883C22.9462 2.40712 21.7085 3.61067 20.5072 4.77643L20.499 4.78301L18.8029 6.51109C18.7814 6.50616 18.7615 6.50287 18.74 6.50122L4.07652 5.05762C4.06329 5.05597 4.04839 5.05597 4.03516 5.05597C3.93918 5.05597 3.84487 5.08721 3.76875 5.14805L1.15933 7.19837C1.0435 7.29045 0.982276 7.43679 1.00048 7.58313C1.01868 7.73111 1.11299 7.85936 1.24868 7.92019L12.6113 13.0698H12.6097C11.5175 14.3194 10.2004 15.8534 8.9413 17.3565C8.46476 17.9237 7.99319 18.491 7.54146 19.0467L2.01987 18.0882C1.99671 18.0832 1.97189 18.0816 1.94707 18.0816C1.84282 18.0816 1.74023 18.1194 1.66081 18.1901L0.143485 19.5334C0.044204 19.6222 -0.00874546 19.7505 0.00118435 19.8837C0.0094579 20.0152 0.0806088 20.1352 0.191471 20.2076L4.58805 23.0997H4.5864C4.56985 23.1277 4.55496 23.1556 4.53841 23.1836C3.68458 24.6518 3.19151 26.1382 3.97086 26.9027C4.00726 26.9373 4.04532 26.9702 4.08504 27.0014L4.1082 27.0178C4.38619 27.2201 4.75186 27.3105 5.16885 27.3105C6.01605 27.3105 7.08001 26.9422 8.091 26.3947H8.09265L10.7418 30.7912C10.8096 30.9046 10.9271 30.9803 11.0578 30.9967C11.076 30.9984 11.0926 31 11.1108 31C11.2233 31 11.3325 30.9556 11.4136 30.875L12.9657 29.3377C13.0617 29.2423 13.1063 29.1092 13.0881 28.9776L12.3121 23.384C12.3088 23.3527 12.3005 23.3231 12.2906 23.2952L12.2889 23.2968C12.7225 22.9252 13.1676 22.5356 13.6292 22.1327C14.9662 20.9587 16.4438 19.6483 17.9164 18.3083H17.918L23.3503 29.3609C23.4115 29.4875 23.5307 29.5747 23.6697 29.596C23.6912 29.5993 23.7143 29.601 23.7359 29.601C23.8517 29.601 23.9642 29.5549 24.0453 29.4711L26.0954 27.3632C26.1831 27.2728 26.2278 27.1478 26.2146 27.0212L24.6327 11.9208H24.631C24.8478 11.7054 25.0596 11.4965 25.2631 11.296L25.6371 10.9244L25.9779 10.5873L26.1285 10.4377C27.5234 9.05656 28.4881 8.10293 29.2525 7.0687C30.0451 5.99669 30.6309 4.82598 30.8741 3.66684C31.1091 2.54878 31.0446 1.31728 30.4274 0.621779V0.620135C30.4026 0.592183 30.3761 0.56423 30.348 0.537923C29.9393 0.135104 29.3816 0.000269753 28.7876 0.000269753L28.7872 0Z" fill="black"/>
</svg>
