<svg width="69" height="80" viewBox="0 0 69 80" fill="none" xmlns="http://www.w3.org/2000/svg">
<g clip-path="url(#clip0_355_447)">
<g clip-path="url(#clip1_355_447)">
<g clip-path="url(#clip2_355_447)">
<path d="M26.724 32.0393C24.3637 24.322 22.9969 19.6446 22.5217 17.9126C20.6837 11.0358 19.317 6.72754 18.4255 4.99558C17.3219 2.8434 16.1162 1.89691 14.8006 2.16004C15.1697 3.26362 14.9577 3.99804 14.1722 4.26117C13.4888 4.5243 12.9626 4.31615 12.5973 3.63279C12.4402 3.36966 12.3853 3.05547 12.3853 2.6863C12.3853 1.48061 13.5949 0.00785516 15.7471 0.00785516C17.6911 0.00785516 19.2149 0.848306 20.3695 2.58027C19.478 3.68385 20.0554 5.47079 21.5752 5.47079C22.2036 5.47079 22.6238 5.10162 22.7849 4.31615C22.993 3.52676 22.8398 2.89838 22.3136 2.42317C23.3111 0.797251 24.4658 0.00785516 25.8835 0.00785516C28.1928 0.00785516 29.3475 1.63378 29.1904 2.94944C29.1393 3.78989 28.7191 4.26117 28.0357 4.31615C27.3524 4.36721 26.9321 4.05302 26.775 3.36966C26.669 3.00049 26.7201 2.52921 26.9321 2.05793C25.0392 2.05793 24.2026 4.00196 24.3597 6.9946C24.5168 9.93618 25.0431 13.0349 26.0406 16.4477L32.238 38.6097V39.242C32.238 40.2906 32.238 41.08 32.183 41.6024C32.1319 42.651 31.6057 44.1237 30.5571 45.2273C30.3489 44.1159 29.0882 39.7565 26.724 32.0393ZM17.64 12.3436C18.6376 13.7064 19.1089 15.4934 19.0578 17.7005C19.0028 19.9077 18.3234 21.6907 16.9017 23.0064C15.9591 23.8979 15.0126 24.0039 14.0151 23.2695C13.1747 22.6922 12.9115 21.9578 13.2257 21.1173C13.3317 20.8542 13.4888 20.5911 13.697 20.3829C14.4864 19.6996 15.641 19.6996 16.4265 20.489C17.8443 18.3878 16.4815 14.6608 13.1197 11.8763L12.7505 11.5071C13.4339 11.35 14.2743 10.6667 15.374 9.56308C16.4775 8.4595 17.4201 7.30486 18.2645 6.20128C19.0539 8.35346 19.5762 9.77123 19.7333 10.4035C19.1638 10.9809 18.4805 11.6092 17.64 12.3436ZM44.9469 46.217C45.2061 47.0025 45.0529 47.6858 44.4717 48.3692C43.8943 49.0525 43.317 49.3157 42.6847 49.1586C42.4766 50.8395 39.2208 50.5763 39.2208 48.8954C38.8006 49.3667 38.3293 49.4217 37.748 49.0525C37.2218 48.6834 37.0647 48.2631 37.2218 47.7919C36.8016 47.4227 36.2792 46.7943 35.5959 46.0049C34.9675 45.2155 34.5983 44.5871 34.5473 44.218C33.6557 45.9499 32.8153 47.1595 32.0809 47.7879C32.238 48.2631 32.0259 48.6794 31.5036 49.0486C30.9773 49.4178 30.506 49.4178 30.0858 48.9426H30.0347C30.0347 49.732 29.4574 50.1522 28.3538 50.2543C27.2502 50.3603 26.6729 49.9912 26.6219 49.1507C25.9935 49.3078 25.3612 49.0447 24.7839 48.3613C24.2066 47.678 24.0495 46.9946 24.3087 46.2091C24.5207 46.6294 25.2002 46.8925 26.4098 47.0496C27.6194 47.2067 28.8251 46.9946 30.0858 46.4212C31.9238 45.5297 32.8703 42.9023 32.8703 40.1728V26.2582C32.8703 22.4251 32.7132 18.8513 32.399 15.6505C32.0848 12.4458 31.7156 10.5567 31.3504 10.0304C30.8241 9.40206 30.616 9.13893 29.6184 9.13893C29.2493 9.08787 28.9351 9.08787 28.6719 9.08787C28.0946 9.08787 26.4137 9.13893 25.208 9.13893C24.9999 7.98429 24.9449 6.98675 25.0509 6.19735C31.6175 6.77467 38.129 6.77467 44.6405 6.19735L44.4324 9.13893H42.6454C41.3337 9.08787 40.9135 9.08787 40.073 9.13893C39.0244 9.24497 38.3921 9.35101 37.9208 10.0304C37.5517 10.6078 37.1864 12.5007 36.8722 15.7015C36.5581 18.9062 36.401 22.4251 36.401 26.2582C36.401 38.0717 36.452 41.0682 36.452 40.593C36.452 43.3736 37.6616 45.9499 39.5507 46.7354C41.8992 47.7408 44.4756 47.1085 44.9469 46.217ZM34.5473 45.6907C35.2817 46.6333 35.965 47.4227 36.5423 48.106L36.4913 50.1011C36.3853 50.8355 34.7593 53.2509 34.6533 53.569C34.4962 53.4119 32.9213 51.3107 32.8153 50.1011L32.7093 48.1571L34.5473 45.6907ZM37.5949 43.4875C37.3317 42.6981 37.1747 42.0697 37.1236 41.4924C37.0686 40.9151 37.0686 39.9175 37.0686 38.6019C39.6449 30.2523 41.8482 22.8493 43.6351 16.2828C44.6327 12.5557 45.21 9.45704 45.2611 6.67256C45.316 3.78596 44.5266 2.05007 42.6886 2.05007C43.1089 3.09867 42.9518 3.83702 42.1624 4.20226C41.534 4.46539 41.0077 4.3083 40.6386 3.73098C40.4815 3.52283 40.4265 3.2597 40.3754 2.94158C40.2183 1.62985 41.424 0 43.7372 0C45.1 0 46.2586 0.789396 47.2561 2.41532C46.8359 2.89053 46.7299 3.5189 46.887 4.3083C47.0441 5.09769 47.5193 5.46294 48.2537 5.46294C48.8821 5.46294 49.3023 5.09377 49.4633 4.35935C49.6715 3.56996 49.5693 2.99656 49.2002 2.57241C50.4059 0.840452 51.9807 0 53.8227 0C55.9748 0 57.1845 1.47275 57.1845 2.67845C57.1845 3.56996 56.8153 4.09622 56.1359 4.25331C55.4525 4.41041 54.9812 4.19833 54.7731 3.5189C54.616 3.14973 54.667 2.67845 54.8241 2.15218C53.4064 1.78301 52.1967 2.7295 51.2542 4.98773C48.8899 12.1826 46.2625 20.4261 43.427 29.7221C40.5914 39.0182 39.1226 44.3201 39.0166 45.6357C38.3803 45.0074 37.9091 44.273 37.5949 43.4875ZM56.1319 11.9784C54.506 13.3962 53.4024 14.92 52.8762 16.6009C52.3499 18.2818 52.4049 19.5425 52.9822 20.434C53.6656 19.5935 54.8752 19.4875 55.7117 20.2769C56.5011 21.0113 56.6032 21.8007 55.9748 22.6922C55.3975 23.5837 54.6121 23.8979 53.6106 23.6348C53.1904 23.5287 52.8251 23.3206 52.4559 22.9514C51.0932 21.6397 50.3548 19.9077 50.2488 17.8066C50.1977 15.6544 50.618 13.9185 51.5605 12.5007C50.9321 11.6092 50.4059 10.9259 50.0367 10.4546C50.1938 10.0854 50.7201 8.72263 51.5095 6.30731C54.0819 9.51203 55.8688 11.244 56.8153 11.5071L56.1319 11.9784Z" fill="#B5B5B5"/>
<path d="M10.5278 62.0287C9.48309 62.1701 9.21603 62.3115 8.65442 63.7136C8.2342 64.7425 6.07808 69.9698 5.31618 71.906H4.8017C3.8827 69.3925 2.53955 65.7401 1.64804 63.4308C1.21211 62.2762 0.945046 62.1191 -0.00537109 62.0248V61.5889H3.95732V62.0248C2.80268 62.1505 2.73984 62.3351 2.95977 62.9163C3.34858 64.0552 4.48751 67.1618 5.47327 69.7499C6.30194 67.7352 7.33091 65.1942 8.06532 63.2266C8.407 62.3233 8.22241 62.1819 6.9421 62.0248V61.5889H10.5317V62.0287H10.5278Z" fill="#B5B5B5"/>
<path d="M20.7978 69.2552C20.7035 69.6597 20.2833 71.2699 20.1262 71.7373H12.5425V71.3013C13.9956 71.1914 14.1016 71.05 14.1016 69.7736V63.6076C14.1016 62.2174 13.9288 62.1388 12.7585 62.0328V61.5969H17.5341C19.003 61.5969 19.6117 61.5811 19.7963 61.5654C19.812 61.9542 19.8748 63.1246 19.9377 63.9533L19.4703 64.0318C19.3289 63.5016 19.1758 63.1717 19.003 62.8457C18.7516 62.3313 18.3942 62.2213 17.4595 62.2213H15.975C15.4919 62.2213 15.4605 62.2684 15.4605 62.7201V66.1683H17.1925C18.3628 66.1683 18.4414 65.9326 18.6299 64.8723H19.1129V68.0887H18.6299C18.4256 66.9655 18.3039 66.8084 17.1767 66.8084H15.4605V69.915C15.4605 71.0068 15.8022 71.101 16.5837 71.1167H18.0368C18.9873 71.1167 19.1443 70.9753 19.49 70.5708C19.7845 70.2449 20.1144 69.6047 20.3343 69.1334L20.7978 69.2552Z" fill="#B5B5B5"/>
<path d="M34.2334 62.0287C33.2358 62.1387 32.9059 62.2958 32.8588 63.0105C32.8431 63.5093 32.8117 64.1652 32.8117 65.6183V71.8746H32.2186L25.5382 63.7135V67.6134C25.5382 69.0194 25.5853 69.7184 25.6168 70.174C25.6482 70.9713 26.037 71.203 27.1602 71.2972V71.7332H23.3664V71.2972C24.3325 71.2187 24.7095 70.987 24.7724 70.2211C24.8195 69.7224 24.8509 69.0194 24.8509 67.5977V63.6193C24.8509 63.1833 24.8195 62.932 24.5407 62.5903C24.2461 62.2015 23.9162 62.1073 23.1504 62.0287V61.5928H25.4911L32.1087 69.4435V65.6183C32.1087 64.1652 32.0772 63.4975 32.0301 63.0263C31.983 62.3233 31.6256 62.1073 30.3767 62.0287V61.5928H34.2334V62.0287Z" fill="#B5B5B5"/>
<path d="M45.375 64.0395C45.2336 63.5407 45.0491 63.0262 44.8763 62.7435C44.6249 62.3232 44.4717 62.2133 43.6116 62.2133H42.0525V69.8127C42.0525 71.0302 42.1782 71.203 43.6588 71.2972V71.7332H39.1188V71.2972C40.5719 71.203 40.6936 71.0459 40.6936 69.8127V62.2133H39.2719C38.4118 62.2133 38.1644 62.3075 37.8974 62.7749C37.7089 63.0852 37.5871 63.4622 37.3829 64.0395H36.9155C37.0098 63.0891 37.104 62.1033 37.1512 61.2314H37.5086C37.7442 61.6045 37.9131 61.5888 38.3529 61.5888H44.5346C44.9705 61.5888 45.0962 61.526 45.3318 61.2314H45.7049C45.7049 61.9659 45.7678 63.0891 45.8463 63.9924L45.375 64.0395Z" fill="#B5B5B5"/>
<path d="M59.4037 62.0287C58.4219 62.0915 58.0606 62.339 58.0291 63.0577C58.0134 63.4151 57.982 64.0709 57.982 65.5083V67.1932C57.982 68.7837 57.7935 70.0012 56.8902 70.9556C56.1558 71.7214 55.0954 71.9531 54.0193 71.9531C53.116 71.9531 52.146 71.7646 51.4587 71.2344C50.524 70.5157 50.0684 69.4396 50.0684 67.6134V63.635C50.0684 62.229 49.9427 62.1387 48.6938 62.0287V61.5928H52.7979V62.0287C51.549 62.1073 51.4234 62.2329 51.4234 63.635V67.5348C51.4234 69.8127 52.4994 71.0616 54.3728 71.0616C56.5878 71.0616 57.2908 69.687 57.2908 67.0989V65.5083C57.2908 64.0709 57.2437 63.4779 57.2123 63.0577C57.1651 62.3547 56.8077 62.0915 55.6531 62.0287V61.5928H59.3998V62.0287H59.4037Z" fill="#B5B5B5"/>
<path d="M67.1602 63.9651C66.8932 62.9361 66.4573 61.9189 64.9924 61.9189C63.7749 61.9189 63.3547 62.8105 63.3547 63.6195C63.3547 64.6956 64.0419 65.2415 65.338 65.9131C67.2113 66.8792 68.0203 67.5979 68.0203 69.0824C68.0203 70.7201 66.5986 71.969 64.5878 71.969C63.6531 71.969 62.8402 71.702 62.2 71.4545C62.0743 71.0186 61.8898 69.9582 61.7798 69.1138L62.2629 68.9882C62.5731 70.0328 63.2604 71.3917 64.8863 71.3917C66.0095 71.3917 66.6968 70.6102 66.6968 69.5969C66.6968 68.3951 66.0567 67.9121 64.6821 67.162C63.0444 66.2744 62.1215 65.5243 62.1215 64.0711C62.1215 62.6809 63.2761 61.373 65.338 61.373C66.2138 61.373 67.0699 61.6087 67.3998 61.6676C67.4627 62.2292 67.5255 62.8537 67.6512 63.8669L67.1602 63.9651Z" fill="#B5B5B5"/>
<path d="M16.9684 76.2571C16.9016 76.0215 16.8113 75.7741 16.7327 75.6445C16.6149 75.4442 16.5403 75.3931 16.1319 75.3931H15.3896V78.9984C15.3896 79.5757 15.4485 79.6582 16.1515 79.7014V79.9096H13.9954V79.7014C14.6827 79.6582 14.7416 79.5836 14.7416 78.9984V75.3931H14.0661C13.6576 75.3931 13.5398 75.4363 13.4141 75.6602C13.3238 75.8094 13.2649 75.9861 13.1706 76.2611H12.9468C12.99 75.8094 13.0371 75.3421 13.0567 74.9297H13.2256C13.3356 75.1064 13.4181 75.0986 13.6262 75.0986H16.5599C16.7681 75.0986 16.827 75.0671 16.937 74.9297H17.1137C17.1137 75.2792 17.1451 75.8094 17.1805 76.2414L16.9684 76.2571Z" fill="#B5B5B5"/>
<path d="M25.8917 79.9686C25.7935 79.9686 25.715 79.9607 25.6168 79.9529C25.0748 79.9175 24.7881 79.7761 24.4622 79.3166C24.1873 78.9396 23.9202 78.4722 23.6846 78.0952C23.5353 77.8596 23.4411 77.8125 23.064 77.8125H22.8048V78.9749C22.8048 79.6033 22.8873 79.6426 23.4803 79.7015V79.9096H21.5049V79.7015C22.1175 79.6347 22.1725 79.6033 22.1725 78.9749V76.0216C22.1725 75.3932 22.0901 75.3696 21.5049 75.3029V75.0947H23.3939C23.9359 75.0947 24.2972 75.1615 24.58 75.3461C24.8824 75.5385 25.0827 75.8723 25.0827 76.324C25.0827 76.9602 24.6742 77.3608 24.1283 77.5964C24.2619 77.8242 24.58 78.323 24.8039 78.6568C25.0788 79.0496 25.2201 79.2341 25.389 79.4187C25.5893 79.6347 25.7582 79.7133 25.931 79.7604L25.8917 79.9686ZM23.1583 77.5611C23.5432 77.5611 23.7867 77.5022 23.9713 77.3451C24.2619 77.1291 24.3797 76.8345 24.3797 76.4339C24.3797 75.6406 23.8534 75.3539 23.284 75.3539C23.068 75.3539 22.9423 75.3854 22.8912 75.4286C22.8245 75.4796 22.8009 75.5542 22.8009 75.7467V77.5611H23.1583Z" fill="#B5B5B5"/>
<path d="M32.7606 79.9092V79.7011C33.2436 79.6422 33.3025 79.5676 33.1965 79.2848C33.0983 78.9942 32.953 78.625 32.7959 78.1576H31.1975C31.0797 78.4915 30.9697 78.7782 30.8637 79.0845C30.7026 79.5676 30.8048 79.6265 31.4135 79.6972V79.9053H29.7012V79.6972C30.1685 79.6383 30.2863 79.5872 30.5456 78.9196L32.0772 75.0315L32.3129 74.9883C32.7802 76.2529 33.2908 77.6549 33.7581 78.9353C33.9938 79.5793 34.0605 79.6383 34.5868 79.6972V79.9053H32.7606V79.9092ZM32.0222 75.9623C31.7866 76.5985 31.5352 77.274 31.3114 77.8592H32.6977L32.0222 75.9623Z" fill="#B5B5B5"/>
<path d="M42.6103 75.3029C42.1155 75.3696 41.9898 75.4364 41.7227 76.1041C41.5225 76.591 40.5013 79.0731 40.14 79.9921H39.8965C39.4606 78.7982 38.8244 77.0663 38.4002 75.9705C38.1921 75.4207 38.0664 75.35 37.6147 75.3029V75.0947H39.4959V75.3029C38.9461 75.3618 38.9186 75.4521 39.0207 75.7231C39.2053 76.2651 39.7473 77.7378 40.2146 78.9671C40.6074 78.0127 41.0944 76.8031 41.4439 75.8723C41.6049 75.4443 41.5185 75.3775 40.9098 75.3029V75.0947H42.6143V75.3029H42.6103Z" fill="#B5B5B5"/>
<path d="M50.4414 78.7315C50.3982 78.924 50.1979 79.6859 50.1233 79.9097H46.5259V79.7016C47.2132 79.6505 47.2681 79.5838 47.2681 78.975V76.0492C47.2681 75.3894 47.1857 75.354 46.6319 75.303V75.0948H48.898C49.5931 75.0948 49.8838 75.087 49.9702 75.0791C49.978 75.2637 50.0055 75.8214 50.0369 76.2102L49.8131 76.2455C49.7463 75.9942 49.6717 75.8371 49.5892 75.6839C49.4714 75.4404 49.2986 75.3894 48.8548 75.3894H48.1518C47.924 75.3894 47.9083 75.4129 47.9083 75.625V77.2627H48.7291C49.2829 77.2627 49.3221 77.1527 49.4085 76.65H49.6363V78.1739H49.4085C49.3104 77.6397 49.2515 77.5651 48.7213 77.5651H47.9083V79.0379C47.9083 79.5563 48.0693 79.5995 48.4424 79.6073H49.1297C49.5813 79.6073 49.656 79.5406 49.817 79.3481C49.9584 79.191 50.1115 78.8886 50.2176 78.6687L50.4414 78.7315Z" fill="#B5B5B5"/>
<path d="M58.3787 78.6804C58.3355 78.9082 58.1117 79.6819 58.0371 79.9096H54.5928V79.7015C55.2683 79.6347 55.3272 79.5994 55.3272 78.9671V76.0294C55.3272 75.4011 55.2526 75.3618 54.6595 75.3029V75.0947H56.6428V75.3029C56.0498 75.3618 55.9673 75.3932 55.9673 76.0294V79.0417C55.9673 79.4934 56.0263 79.5955 56.4504 79.6033C56.4583 79.6033 56.9924 79.6112 57.0356 79.6112C57.4126 79.6112 57.5226 79.568 57.6954 79.3834C57.88 79.1909 58.0371 78.8964 58.147 78.6215L58.3787 78.6804Z" fill="#B5B5B5"/>
</g>
</g>
</g>
<defs>
<clipPath id="clip0_355_447">
<rect width="68.05" height="80" fill="white"/>
</clipPath>
<clipPath id="clip1_355_447">
<rect width="68.05" height="80" fill="white"/>
</clipPath>
<clipPath id="clip2_355_447">
<rect width="68.0609" height="80" fill="white" transform="translate(-0.00537109)"/>
</clipPath>
</defs>
</svg>
