<svg width="240" height="46" viewBox="0 0 240 46" fill="none" xmlns="http://www.w3.org/2000/svg">
<g clip-path="url(#clip0_328_18)">
<path d="M12.1703 27.1845C10.1665 20.6339 9.00852 16.666 8.60549 15.1958C7.04447 9.36045 5.88647 5.70482 5.1315 4.23463C4.19489 2.40681 3.17313 1.60643 2.05487 1.82781C2.36708 2.76443 2.18543 3.38884 1.52129 3.61022C0.942289 3.8316 0.493851 3.65563 0.181647 3.07663C0.0454122 2.85525 0 2.58846 0 2.27625C0 1.25449 1.02744 0.00567506 2.84957 0.00567506C4.49574 0.00567506 5.78997 0.715232 6.772 2.19111C6.01703 3.12772 6.5052 4.64333 7.79376 4.64333C8.32734 4.64333 8.68496 4.33113 8.82119 3.66131C8.99716 2.99149 8.8666 2.4579 8.41817 2.05487C9.26396 0.675497 10.246 0.00567506 11.4494 0.00567506C13.4078 0.00567506 14.3898 1.38505 14.2535 2.50331C14.2081 3.21854 13.8505 3.61589 13.2715 3.66131C12.6925 3.70672 12.3349 3.43992 12.2044 2.86093C12.1135 2.54872 12.1589 2.15137 12.3406 1.74834C10.7342 1.74834 10.0246 3.39451 10.1552 5.93756C10.2914 8.43519 10.7342 11.0634 11.5799 13.9584L16.8363 32.7644V33.298C16.8363 34.1892 16.8363 34.859 16.7909 35.3018C16.7455 36.193 16.3027 37.4418 15.4115 38.3784C15.2469 37.4361 14.1798 33.7351 12.1703 27.1845ZM4.46168 10.473C5.30747 11.631 5.7105 13.1466 5.66509 15.0199C5.61968 16.8931 5.04068 18.4087 3.83728 19.5213C3.0369 20.2763 2.23084 20.3671 1.38505 19.7427C0.66982 19.2545 0.44844 18.6301 0.715232 17.9149C0.806055 17.6935 0.936613 17.4664 1.11826 17.2904C1.78808 16.7114 2.76443 16.7114 3.43425 17.3813C4.63765 15.5989 3.47966 12.4371 0.630085 10.07L0.317881 9.7578C0.896878 9.62157 1.61211 9.04825 2.54305 8.11164C3.47966 7.17502 4.28004 6.19867 4.99527 5.26206C5.66509 7.08988 6.10785 8.29328 6.24409 8.82687C5.75591 9.31504 5.17692 9.84863 4.46168 10.473ZM27.6386 39.2185C27.86 39.8884 27.7294 40.4674 27.2356 41.0464C26.7474 41.6254 26.2535 41.8467 25.72 41.7162C25.544 43.141 22.7796 42.9196 22.7796 41.4948C22.4219 41.8978 22.0246 41.9432 21.5307 41.631C21.0823 41.3188 20.9517 40.9612 21.0823 40.5582C20.7247 40.246 20.2819 39.7124 19.7029 39.0426C19.1693 38.3727 18.8571 37.8392 18.8117 37.527C18.0568 38.9972 17.3415 40.0246 16.7171 40.5582C16.8534 40.9612 16.6717 41.3131 16.2289 41.631C15.7805 41.9432 15.3832 41.9432 15.0255 41.5402H14.9801C14.9801 42.21 14.492 42.5676 13.5553 42.6528C12.6187 42.7436 12.1306 42.4314 12.0851 41.7162C11.5516 41.8524 11.018 41.6254 10.5241 41.0464C10.036 40.4674 9.89972 39.8884 10.1211 39.2185C10.3027 39.5762 10.8761 39.7975 11.9035 39.9281C12.9309 40.0643 13.9527 39.8827 15.0199 39.3945C16.5809 38.6395 17.3813 36.4087 17.3813 34.0927V22.2857C17.3813 19.0331 17.245 16.0019 16.9782 13.2829C16.7114 10.5639 16.3992 8.95743 16.087 8.51466C15.6386 7.98108 15.4626 7.7597 14.6168 7.7597C14.3046 7.71428 14.0378 7.71428 13.8165 7.71428C13.3283 7.71428 11.9035 7.7597 10.8761 7.7597C10.7001 6.77767 10.6547 5.93188 10.7398 5.26206C16.3141 5.75024 21.8373 5.75024 27.3605 5.26206L27.1845 7.7597H25.6689C24.5563 7.71428 24.1987 7.71428 23.4834 7.7597C22.5922 7.85052 22.0587 7.94134 21.6556 8.51466C21.3434 9.00284 21.0312 10.6093 20.7644 13.3283C20.4976 16.0473 20.3614 19.0331 20.3614 22.2857C20.3614 32.3103 20.4068 34.8534 20.4068 34.4503C20.4068 36.8117 21.4342 38.9972 23.035 39.6613C25.0501 40.5128 27.2356 39.9792 27.6386 39.2185ZM18.8117 38.7758C19.4361 39.5762 20.0151 40.246 20.5033 40.825L20.4579 42.5166C20.3671 43.141 18.9877 45.1902 18.8969 45.457C18.7606 45.3207 17.4267 43.5383 17.3359 42.5166L17.245 40.8704L18.8117 38.7758ZM21.3945 36.9025C21.1731 36.2327 21.0369 35.6991 20.9915 35.211C20.9461 34.7228 20.9461 33.8713 20.9461 32.7587C23.1315 25.6745 24.9991 19.3907 26.5203 13.8221C27.3661 10.6604 27.8543 8.02649 27.8997 5.66509C27.9451 3.21287 27.2753 1.74267 25.7143 1.74267C26.0719 2.63387 25.9357 3.25828 25.2658 3.57048C24.7323 3.79186 24.2838 3.66131 23.9716 3.16745C23.8354 2.99149 23.79 2.76443 23.7502 2.49763C23.614 1.38505 24.6414 0 26.5998 0C27.7578 0 28.7398 0.66982 29.5856 2.0492C29.228 2.45222 29.1372 2.98581 29.2734 3.65563C29.4097 4.32545 29.807 4.63765 30.4314 4.63765C30.965 4.63765 31.3226 4.32545 31.4588 3.70104C31.6348 3.03122 31.5497 2.54305 31.2375 2.18543C32.2592 0.715232 33.5989 0 35.1599 0C36.9877 0 38.0095 1.24882 38.0095 2.27058C38.0095 3.02554 37.6973 3.47398 37.1183 3.61022C36.5393 3.74645 36.1362 3.56481 35.9603 2.98581C35.824 2.6736 35.8694 2.27058 36.0057 1.82781C34.8023 1.51561 33.7748 2.31599 32.9745 4.23463C30.9707 10.3425 28.7398 17.3359 26.333 25.2261C23.9262 33.1164 22.6774 37.6121 22.5922 38.7304C22.0643 38.1911 21.667 37.5724 21.3945 36.9025ZM37.1296 10.1608C35.7502 11.3642 34.8136 12.6585 34.3652 14.0833C33.9167 15.508 33.9622 16.5809 34.456 17.3359C35.035 16.6206 36.0624 16.5355 36.772 17.1996C37.4418 17.824 37.527 18.4938 36.9934 19.2488C36.5052 20.0038 35.8354 20.2706 34.9896 20.0492C34.632 19.9584 34.3198 19.7824 34.0076 19.4702C32.8496 18.3576 32.2252 16.8874 32.1343 15.105C32.0889 13.2772 32.4465 11.807 33.2469 10.6036C32.7133 9.84863 32.2649 9.26395 31.9527 8.8666C32.0889 8.5544 32.5317 7.3964 33.2015 5.34721C35.3869 8.06622 36.9026 9.53642 37.7029 9.7578L37.1296 10.1608Z" fill="white"/>
<path d="M63.2865 17.4267C61.8674 17.6197 61.5041 17.807 60.7378 19.72C60.1645 21.122 57.2354 28.229 56.1966 30.8571H55.4984C54.2439 27.4399 52.4218 22.4787 51.2127 19.334C50.6167 17.7616 50.2591 17.5516 48.9648 17.4267V16.8307H54.3518V17.4267C52.7794 17.597 52.6943 17.8524 52.9951 18.6358C53.523 20.1854 55.0727 24.4087 56.4123 27.9281C57.5363 25.1921 58.9384 21.7351 59.9317 19.0615C60.3972 17.8297 60.1418 17.6424 58.4048 17.4267V16.8307H63.2865V17.4267Z" fill="white"/>
<path d="M77.2448 27.2526C77.1199 27.8032 76.5466 29.9887 76.3309 30.6244H66.0225V30.0284C67.9979 29.8808 68.1455 29.6878 68.1455 27.9508V19.5724C68.1455 17.6821 67.9127 17.58 66.3233 17.4267V16.8307H72.8172C74.8096 16.8307 75.6384 16.808 75.8938 16.7909C75.9165 17.3188 76.0016 18.9139 76.0868 20.0379L75.451 20.1457C75.258 19.4248 75.048 18.9764 74.8153 18.5336C74.4747 17.8354 73.9865 17.6821 72.715 17.6821H70.6999C70.0414 17.6821 70.0016 17.7446 70.0016 18.3633V23.052H72.3574C73.9468 23.052 74.0546 22.7342 74.3101 21.2923H74.9685V25.6632H74.3101C74.0319 24.1362 73.8673 23.9262 72.3347 23.9262H70.0016V28.1495C70.0016 29.6367 70.4671 29.7616 71.5286 29.7843H73.504C74.7982 29.7843 75.0083 29.5913 75.4794 29.0407C75.8824 28.5979 76.3309 27.7238 76.6261 27.088L77.2448 27.2526Z" fill="white"/>
<path d="M95.5121 17.4267C94.1554 17.5743 93.7069 17.79 93.6445 18.7606C93.6218 19.4418 93.5821 20.333 93.5821 22.3027V30.8117H92.776L83.6937 19.7143V25.0161C83.6937 26.9234 83.7561 27.8827 83.8016 28.4957C83.8413 29.5799 84.3749 29.8978 85.9018 30.0227V30.6187H80.7476V30.0284C82.0646 29.9205 82.5698 29.6027 82.6549 28.5639C82.7174 27.8827 82.7628 26.929 82.7628 24.9991V19.5894C82.7628 18.9934 82.723 18.6585 82.337 18.1873C81.934 17.6594 81.4856 17.5289 80.4468 17.421V16.825H83.6313L92.6284 27.4967V22.3084C92.6284 20.333 92.5887 19.4248 92.5206 18.789C92.4581 17.8354 91.97 17.5345 90.2727 17.4324V16.8363H95.5121V17.4267Z" fill="white"/>
<path d="M110.662 20.1627C110.469 19.4816 110.219 18.7834 109.981 18.403C109.64 17.8297 109.43 17.6821 108.261 17.6821H106.138V28.0132C106.138 29.6708 106.308 29.9035 108.323 30.0284V30.6244H102.147V30.0284C104.123 29.9035 104.293 29.6878 104.293 28.0132V17.6821H102.363C101.194 17.6821 100.859 17.807 100.496 18.4484C100.24 18.8742 100.07 19.3794 99.7974 20.1684H99.1616C99.2865 18.8742 99.4171 17.5402 99.4795 16.3482H99.9677C100.286 16.859 100.518 16.8363 101.114 16.8363H109.515C110.111 16.8363 110.282 16.7512 110.6 16.3482H111.111C111.111 17.3472 111.196 18.8742 111.304 20.106L110.662 20.1627Z" fill="white"/>
<path d="M129.735 17.4267C128.401 17.5118 127.913 17.8524 127.867 18.8288C127.845 19.3169 127.805 20.2081 127.805 22.1608V24.4541C127.805 26.6168 127.549 28.2744 126.318 29.5686C125.319 30.6074 123.877 30.9253 122.412 30.9253C121.18 30.9253 119.864 30.6698 118.933 29.9489C117.661 28.9726 117.042 27.508 117.042 25.0274V19.6178C117.042 17.7105 116.872 17.5799 115.175 17.4324V16.8363H120.755V17.4324C119.057 17.5402 118.887 17.7105 118.887 19.6178V24.9196C118.887 28.0189 120.352 29.7162 122.895 29.7162C125.909 29.7162 126.863 27.8486 126.863 24.3292V22.1665C126.863 20.2138 126.8 19.4078 126.755 18.8344C126.692 17.8808 126.204 17.5175 124.632 17.4324V16.8363H129.724V17.4267H129.735Z" fill="white"/>
<path d="M140.282 20.0549C139.918 18.6528 139.328 17.2734 137.33 17.2734C135.673 17.2734 135.105 18.4825 135.105 19.5837C135.105 21.0482 136.036 21.7919 137.801 22.7001C140.35 24.017 141.451 24.9934 141.451 27.0085C141.451 29.2337 139.521 30.9309 136.785 30.9309C135.514 30.9309 134.407 30.5676 133.538 30.2327C133.368 29.6367 133.112 28.1949 132.965 27.0482L133.623 26.878C134.049 28.2971 134.98 30.1476 137.188 30.1476C138.715 30.1476 139.652 29.0861 139.652 27.7067C139.652 26.0719 138.783 25.4134 136.916 24.3973C134.69 23.1883 133.436 22.1722 133.436 20.1968C133.436 18.3065 135.008 16.5241 137.807 16.5241C138.993 16.5241 140.163 16.842 140.605 16.9272C140.69 17.6935 140.776 18.5393 140.946 19.9186L140.282 20.0549Z" fill="white"/>
<path d="M163.726 20.1627C163.533 19.4816 163.283 18.7834 163.044 18.403C162.704 17.8297 162.494 17.6821 161.324 17.6821H159.201V28.0132C159.201 29.6708 159.372 29.9035 161.387 30.0284V30.6244H155.211V30.0284C157.186 29.9035 157.357 29.6878 157.357 28.0132V17.6821H155.427C154.257 17.6821 153.922 17.807 153.559 18.4484C153.304 18.8742 153.133 19.3794 152.861 20.1684H152.225C152.35 18.8742 152.481 17.5402 152.543 16.3482H153.031C153.349 16.859 153.582 16.8363 154.178 16.8363H162.579C163.175 16.8363 163.345 16.7512 163.663 16.3482H164.174C164.174 17.3472 164.259 18.8742 164.367 20.106L163.726 20.1627Z" fill="white"/>
<path d="M180.806 30.7947C180.528 30.7947 180.295 30.772 180.023 30.755C178.473 30.6471 177.644 30.2441 176.713 28.9328C175.93 27.8486 175.164 26.5147 174.488 25.4305C174.062 24.7493 173.79 24.6244 172.706 24.6244H171.962V27.9565C171.962 29.7616 172.195 29.8638 173.892 30.0341V30.6301H168.227V30.0284C169.987 29.8354 170.134 29.7502 170.134 27.9508V19.4872C170.134 17.6821 169.902 17.6197 168.227 17.4267V16.8307H173.637C175.186 16.8307 176.225 17.0237 177.031 17.5516C177.9 18.1022 178.473 19.0558 178.473 20.3501C178.473 22.1722 177.304 23.3188 175.737 24C176.117 24.6585 177.031 26.0776 177.667 27.0369C178.45 28.1608 178.853 28.6944 179.342 29.2223C179.915 29.8354 180.403 30.0738 180.891 30.1987L180.806 30.7947ZM172.978 23.8978C174.079 23.8978 174.783 23.7275 175.311 23.2848C176.14 22.6717 176.481 21.8203 176.481 20.6736C176.481 18.403 174.976 17.5743 173.342 17.5743C172.728 17.5743 172.365 17.6594 172.218 17.7843C172.025 17.9319 171.962 18.1476 171.962 18.6982V23.8978H172.978Z" fill="white"/>
<path d="M192.006 30.6244V30.0284C193.385 29.8581 193.555 29.6481 193.26 28.842C192.982 28.0132 192.562 26.9517 192.113 25.6178H187.532C187.192 26.5714 186.874 27.4002 186.579 28.2687C186.113 29.6481 186.409 29.8184 188.151 30.0284V30.6244H183.252V30.0284C184.586 29.8581 184.927 29.7105 185.671 27.8032L190.064 16.666L190.745 16.5412C192.079 20.1684 193.544 24.1816 194.883 27.8486C195.565 29.6935 195.752 29.8638 197.262 30.0341V30.6301H192.006V30.6244ZM189.888 19.3169C189.207 21.1391 188.486 23.0747 187.85 24.7493H191.818L189.888 19.3169Z" fill="white"/>
<path d="M211.743 17.4267C210.323 17.6197 209.96 17.807 209.194 19.72C208.621 21.122 205.691 28.229 204.653 30.8571H203.954C202.7 27.4399 200.878 22.4787 199.669 19.334C199.073 17.7616 198.715 17.5516 197.421 17.4267V16.8307H202.808V17.4267C201.235 17.597 201.15 17.8524 201.451 18.6358C201.979 20.1854 203.529 24.4087 204.868 27.9281C205.992 25.1921 207.394 21.7351 208.388 19.0615C208.853 17.8297 208.598 17.6424 206.861 17.4267V16.8307H211.743V17.4267Z" fill="white"/>
<path d="M225.701 27.2526C225.576 27.8032 225.003 29.9887 224.787 30.6244H214.473V30.0284C216.449 29.8808 216.596 29.6878 216.596 27.9508V19.5724C216.596 17.6821 216.363 17.58 214.774 17.4267V16.8307H221.268C223.26 16.8307 224.089 16.808 224.344 16.7909C224.367 17.3188 224.452 18.9139 224.537 20.0379L223.902 20.1457C223.709 19.4248 223.499 18.9764 223.266 18.5336C222.925 17.8354 222.437 17.6821 221.166 17.6821H219.151C218.492 17.6821 218.452 17.7446 218.452 18.3633V23.052H220.808C222.397 23.052 222.505 22.7342 222.761 21.2923H223.419V25.6632H222.749C222.471 24.1362 222.307 23.9262 220.774 23.9262H218.441V28.1495C218.441 29.6367 218.906 29.7616 219.968 29.7843H221.943C223.238 29.7843 223.448 29.5913 223.919 29.0407C224.322 28.5979 224.77 27.7238 225.065 27.088L225.701 27.2526Z" fill="white"/>
<path d="M239.96 27.0993C239.835 27.7578 239.194 29.9659 238.984 30.6187H229.118V30.0284C231.048 29.8354 231.218 29.7332 231.218 27.9281V19.5043C231.218 17.6992 231.008 17.597 229.311 17.4267V16.8307H234.999V17.4267C233.302 17.597 233.069 17.6821 233.069 19.5043V28.1381C233.069 29.4324 233.239 29.7275 234.448 29.7502C234.471 29.7502 235.998 29.7729 236.123 29.7729C237.207 29.7729 237.525 29.6481 238.013 29.1145C238.541 28.5639 238.989 27.7124 239.307 26.929L239.96 27.0993Z" fill="white"/>
</g>
<defs>
<clipPath id="clip0_328_18">
<rect width="240" height="45.4683" fill="white"/>
</clipPath>
</defs>
</svg>
