<?xml version="1.0" encoding="UTF-8"?>
<svg width="1200pt" height="1200pt" version="1.1" viewBox="0 0 1200 1200" xmlns="http://www.w3.org/2000/svg">
 <path d="m571.22 698.39c-2.3906 0-4.7812-1.2188-7.2188-2.3906-63.609-43.219-79.219-129.61-36-193.22l112.78-165.61c3.6094-6 12-7.2188 18-3.6094s7.2188 12 3.6094 18l-112.78 165.61c-34.781 51.609-21.609 121.22 28.781 157.22 6 3.6094 7.2188 12 3.6094 18-2.3906 4.8281-6 6-10.781 6z"/>
 <path d="m886.78 572.39c-16.781 0-33.609-7.2188-44.391-20.391l-54-64.781c-4.7812-6-3.6094-14.391 1.2188-19.219 6-4.7812 14.391-3.6094 18 1.2188l54 64.781c6 7.2188 15.609 12 25.219 10.781l170.39-4.7812c8.3906 0 16.781-4.7812 21.609-12 3.6094-4.7812 4.7812-9.6094 4.7812-15.609 0-14.391-12-25.219-26.391-25.219h-1.2188l-138 4.8281c-13.219 0-25.219-4.7812-33.609-15.609l-48-57.609c-4.7812-6-3.6094-14.391 1.2188-19.219 6-4.7812 14.391-3.6094 18 1.2188l48 57.609c3.6094 3.6094 8.3906 6 13.219 6l139.18-2.3906c28.781-1.2188 54 21.609 54 51.609 0 10.781-2.3906 21.609-9.6094 31.219-9.6094 14.391-25.219 22.781-42 22.781l-169.22 4.7812h-2.3906z"/>
 <path d="m784.78 1069.2h-6c-22.781-3.6094-42-16.781-55.219-34.781s-18-40.781-14.391-63.609l25.219-144c0-1.2188 0-2.3906-1.2188-2.3906l-169.18-128.44c-6-4.7812-7.2188-13.219-2.3906-18 4.7812-6 13.219-7.2188 18-2.3906l170.39 128.39c8.3906 6 13.219 18 12 28.781l-25.219 144c-2.3906 15.609 1.2188 31.219 9.6094 43.219 8.3906 13.219 22.781 21.609 37.219 24 3.6094 1.2188 8.3906-2.3906 8.3906-6l40.781-230.39c2.3906-13.219-2.3906-27.609-12-36l-139.18-147.61c-4.7812-4.7812-4.7812-12-1.2188-16.781l153.61-205.22c10.781-14.391 8.3906-33.609-6-44.391l-76.781-61.219c-3.6094-2.3906-8.3906-4.7812-13.219-4.7812l-201.61-24c-20.391-2.3906-42 4.7812-56.391 19.219l-102 97.219c-10.781 9.6094-10.781 26.391-1.2188 37.219 9.6094 10.781 26.391 10.781 37.219 1.2188l94.781-90c8.3906-8.3906 20.391-12 32.391-10.781l110.39 12c7.2188 1.2188 12 7.2188 12 14.391-1.2188 7.2188-7.2188 12-14.391 12l-110.39-12c-3.6094 0-8.3906 1.2188-10.781 3.6094l-94.781 90c-21.609 20.391-54 19.219-74.391-1.2188-20.391-21.609-19.219-54 1.2188-74.391l102-97.219c20.391-20.391 49.219-30 78-26.391l201.61 24c9.6094 1.2188 18 4.7812 26.391 9.6094l76.781 62.391c25.219 20.391 28.781 55.219 10.781 81.609l-146.39 193.13 130.78 139.18c15.609 15.609 22.781 37.219 19.219 60l-40.781 230.39c-2.4375 15.609-16.828 26.438-33.656 26.438z"/>
 <path d="m507.61 872.39c-3.6094 0-8.3906 0-12-1.2188l-235.22-42c-16.781-3.6094-30-18-31.219-36-1.2188-24 9.6094-46.781 27.609-62.391s42-21.609 66-16.781l152.44 30 54-86.391c3.6094-6 12-8.3906 18-3.6094 6 3.6094 8.3906 12 3.6094 18l-60 94.781c-2.3906 4.7812-8.3906 7.2188-13.219 6l-159.61-31.219c-15.609-3.6094-31.219 1.2188-44.391 12-12 10.781-19.219 25.219-18 42 0 4.7812 3.6094 9.6094 9.6094 10.781l235.22 42c16.781 3.6094 34.781-4.7812 44.391-19.219l66-104.39c3.6094-6 12-8.3906 18-3.6094 6 3.6094 8.3906 12 3.6094 18l-66.047 100.88c-12 20.391-34.781 32.391-58.781 32.391z"/>
 <path d="m874.78 324c-6 0-10.781 0-16.781-1.2188-54-9.6094-90-60-80.391-114 4.7812-26.391 19.219-49.219 39.609-63.609s48-21.609 73.219-16.781c26.391 4.7812 49.219 19.219 63.609 39.609s21.609 48 16.781 73.219c-4.7812 26.391-19.219 49.219-39.609 63.609-15.609 13.172-36 19.172-56.438 19.172zm0-170.39c-14.391 0-28.781 4.7812-42 13.219-15.609 10.781-26.391 27.609-30 46.781-7.2188 39.609 20.391 76.781 58.781 82.781 19.219 3.6094 38.391-1.2188 54-12s26.391-27.609 30-46.781c3.6094-19.219-1.2188-38.391-12-54s-27.609-26.391-46.781-30z"/>
 <path d="m897.61 1072.8h-738c-7.2188 0-13.219-6-13.219-13.219s6-13.219 13.219-13.219h738c7.2188 0 13.219 6 13.219 13.219-0.046875 7.2188-4.8281 13.219-13.219 13.219z"/>
 <path d="m164.39 498h-49.172c-7.2188 0-13.219-6-13.219-13.219s6-13.219 13.219-13.219h49.219c7.2188 0 13.219 6 13.219 13.219-0.046875 7.2188-6.0469 13.219-13.266 13.219z"/>
 <path d="m337.22 498h-110.39c-7.2188 0-13.219-6-13.219-13.219s6-13.219 13.219-13.219h110.39c7.2188 0 13.219 6 13.219 13.219-0.046875 7.2188-6.0469 13.219-13.219 13.219z"/>
 <path d="m433.22 572.39h-268.82c-7.2188 0-13.219-6-13.219-13.219s6-13.219 13.219-13.219h268.78c7.2188 0 13.219 6 13.219 13.219s-6 13.219-13.172 13.219z"/>
 <path d="m225.61 646.78h-122.39c-7.2188 0-13.219-6-13.219-13.219s6-13.219 13.219-13.219h122.39c7.2188 0 13.219 6 13.219 13.219-0.046875 7.2188-6.0469 13.219-13.219 13.219z"/>
</svg>
