<?xml version="1.0" encoding="UTF-8"?>
<svg width="1200pt" height="1200pt" version="1.1" viewBox="0 0 1200 1200" xmlns="http://www.w3.org/2000/svg">
 <path d="m1032 939.24c-46.312 0-69.703-11.859-92.297-23.297-20.766-10.547-40.453-20.531-80.625-20.531-40.219 0-59.766 9.9375-80.625 20.531-22.547 11.531-45.938 23.297-92.297 23.297-46.312 0-69.609-11.859-92.156-23.297-20.766-10.547-40.453-20.531-80.531-20.531s-59.766 9.9375-80.531 20.531c-22.547 11.531-45.938 23.297-92.297 23.297-46.312 0-69.609-11.859-92.156-23.297-20.766-10.547-40.453-20.531-80.531-20.531v-25.781c46.312 0 69.609 11.859 92.156 23.297 20.766 10.547 40.453 20.531 80.531 20.531s59.766-9.9375 80.531-20.531c22.547-11.531 45.938-23.297 92.297-23.297 46.312 0 69.609 11.859 92.156 23.297 20.766 10.547 40.453 20.531 80.531 20.531s59.766-9.9375 80.625-20.531c22.547-11.531 45.938-23.297 92.297-23.297 46.312 0 69.703 11.859 92.297 23.297 20.766 10.547 40.453 20.531 80.625 20.531z"/>
 <path d="m1032 514.31v-25.781h-202.69v-140.29c0-48.234-39.234-87.469-87.469-87.469s-87.469 39.234-87.469 87.469v140.29h-108.84v-140.29c0-48.234-39.234-87.469-87.469-87.469s-87.469 39.234-87.469 87.469v140.29h-202.6v25.781h202.55v271.55c-8.625 1.4531-18.375 2.2969-29.859 2.2969-40.078 0-59.766-9.9375-80.531-20.531-22.547-11.531-45.938-23.297-92.156-23.297v25.781c40.078 0 59.766 9.9375 80.531 20.531 22.547 11.531 45.938 23.297 92.156 23.297s69.609-11.859 92.297-23.297c20.766-10.547 40.453-20.531 80.531-20.531 40.078 0 59.766 9.9375 80.531 20.531 22.547 11.531 45.938 23.297 92.156 23.297s69.703-11.859 92.297-23.297c20.766-10.547 40.453-20.531 80.625-20.531 40.219 0 59.766 9.9375 80.625 20.531 22.547 11.531 45.938 23.297 92.297 23.297v-25.781c-40.078 0-59.766-9.9375-80.625-20.531-22.547-11.531-45.938-23.297-92.297-23.297-46.312 0-69.703 11.859-92.297 23.297-20.766 10.547-40.453 20.531-80.625 20.531-2.1562 0-3.9375-0.14062-6-0.23438v-273.71h351.84zm-351.71-166.08c0-33.938 27.703-61.688 61.688-61.688 33.938 0 61.688 27.609 61.688 61.688v140.29h-123.37v-140.29zm-283.82 0c0-33.938 27.703-61.688 61.688-61.688 33.938 0 61.688 27.609 61.688 61.688v140.29h-123.37zm209.29 419.39c-22.547-11.531-45.938-23.297-92.156-23.297s-69.609 11.859-92.297 23.297c-8.0625 4.0781-15.938 8.0625-24.844 11.391v-110.39h258v116.77c-20.391-3.6094-34.312-10.547-48.703-17.859zm48.703-124.69h-258v-128.63h258z"/>
</svg>
