<svg width="32" height="23" viewBox="0 0 32 23" fill="none" xmlns="http://www.w3.org/2000/svg">
<path d="M32 9.69589C31.9947 9.45019 31.8134 9.24111 31.5681 9.19404C31.4667 9.17313 29.2005 8.75493 26.3051 9.30905C26.1185 6.43907 25.116 4.38458 25.0413 4.24351C24.9293 4.02395 24.6787 3.90895 24.4334 3.96645C24.3534 3.98736 22.6097 4.41602 20.5674 5.68108C18.9837 2.23119 16.4826 0.234141 16.3336 0.113699C16.1363 -0.0378995 15.8644 -0.0378995 15.6671 0.113699C15.5124 0.233932 13.0169 2.23086 11.4333 5.68108C9.39103 4.41602 7.64719 3.98212 7.56727 3.96645C7.32198 3.90895 7.07135 4.02395 6.95938 4.24351C6.89006 4.38465 5.88225 6.43907 5.6956 9.30905C2.8056 8.75493 0.533869 9.17313 0.432626 9.19404C0.187337 9.24109 0.00603636 9.45019 0.00068978 9.69589C-0.00464259 9.98339 -0.0899607 16.7635 5.45051 20.0202C10.4632 22.9685 15.774 23 15.9978 23C16.2216 23 21.5329 22.9686 26.5451 20.0202C32.0853 16.7635 32 9.98333 31.9949 9.69589H32ZM24.2628 5.11128C24.8014 6.43907 26.2571 10.825 24.1508 15.2474C22.6631 18.3786 20.0396 20.156 18.1464 21.0866C19.7621 19.1942 21.8683 15.8906 21.8683 11.4995C21.8683 9.70118 21.511 8.08051 20.9831 6.66894C22.3589 5.79072 23.628 5.31503 24.2625 5.10593L24.2628 5.11128ZM16.0029 1.222C17.144 2.25705 20.8018 6.01013 20.8018 11.5045C20.8018 16.9985 17.1385 20.7467 16.0029 21.7869C14.8618 20.7519 11.2041 16.9988 11.2041 11.5045C11.2041 6.01041 14.8673 2.26221 16.0029 1.222ZM7.743 5.11128C8.37754 5.31515 9.64667 5.79607 11.0223 6.6743C10.4944 8.08573 10.1372 9.70626 10.1372 11.5048C10.1372 15.8959 12.2434 19.1997 13.859 21.0919C11.966 20.1614 9.34257 18.3841 7.85462 15.2527C5.75367 10.8301 7.20407 6.43899 7.74264 5.11663L7.743 5.11128ZM1.08821 10.1612C1.87205 10.0671 3.62641 9.96256 5.67433 10.3808C5.69566 12.0117 6.01025 13.8415 6.89011 15.6919C8.27117 18.5984 10.5002 20.4176 12.3877 21.5102C10.5427 21.1286 8.22817 20.4334 6.00479 19.1265C1.77104 16.6382 1.17381 11.6619 1.08849 10.1613L1.08821 10.1612ZM26.0064 19.1263C23.7828 20.4332 21.4687 21.1337 19.6235 21.5101C21.5165 20.4123 23.7398 18.5983 25.1211 15.6918C26.001 13.836 26.3156 12.0116 26.3369 10.3806C28.3738 9.96242 30.1335 10.0722 30.923 10.1611C30.8377 11.6666 30.2405 16.6379 26.0067 19.1262L26.0064 19.1263Z" fill="black"/>
</svg>
